<mxfile host="65bd71144e">
    <diagram id="MnmQ9M5YHiE7k6y4m7to" name="第 1 页">
        <mxGraphModel dx="1268" dy="329" grid="1" gridSize="10" guides="1" tooltips="1" connect="1" arrows="1" fold="1" page="1" pageScale="1" pageWidth="827" pageHeight="1169" math="0" shadow="0">
            <root>
                <mxCell id="0"/>
                <mxCell id="1" parent="0"/>
                <mxCell id="22" value="" style="group" vertex="1" connectable="0" parent="1">
                    <mxGeometry x="-10" y="130" width="360" height="240" as="geometry"/>
                </mxCell>
                <mxCell id="2" value="" style="group" vertex="1" connectable="0" parent="22">
                    <mxGeometry x="120" width="120" height="100" as="geometry"/>
                </mxCell>
                <mxCell id="3" value="" style="whiteSpace=wrap;html=1;fontSize=10;fillColor=#647687;fontColor=#ffffff;strokeColor=#314354;dashed=1;" vertex="1" parent="2">
                    <mxGeometry width="120" height="100" as="geometry"/>
                </mxCell>
                <mxCell id="4" style="edgeStyle=none;html=1;exitX=0;exitY=0.25;exitDx=0;exitDy=0;entryX=1;entryY=0.25;entryDx=0;entryDy=0;fontSize=10;endArrow=none;endFill=0;" edge="1" parent="2" source="3" target="3">
                    <mxGeometry relative="1" as="geometry"/>
                </mxCell>
                <mxCell id="5" value="ImageFormat" style="text;html=1;align=center;verticalAlign=middle;resizable=0;points=[];autosize=1;strokeColor=none;fillColor=none;fontSize=10;dashed=1;" vertex="1" parent="2">
                    <mxGeometry x="20" width="80" height="30" as="geometry"/>
                </mxCell>
                <mxCell id="6" value="&lt;i&gt;+parsefile()&lt;/i&gt;&lt;br&gt;#ImageOs * mOS" style="text;html=1;align=center;verticalAlign=middle;resizable=0;points=[];autosize=1;strokeColor=none;fillColor=none;fontSize=10;dashed=1;" vertex="1" parent="2">
                    <mxGeometry x="11" y="40" width="100" height="40" as="geometry"/>
                </mxCell>
                <mxCell id="18" value="" style="edgeStyle=none;orthogonalLoop=1;jettySize=auto;html=1;" edge="1" parent="2">
                    <mxGeometry width="100" relative="1" as="geometry">
                        <mxPoint x="94" y="59.71000000000001" as="sourcePoint"/>
                        <mxPoint x="140" y="60" as="targetPoint"/>
                        <Array as="points"/>
                    </mxGeometry>
                </mxCell>
                <mxCell id="7" value="" style="group" vertex="1" connectable="0" parent="22">
                    <mxGeometry y="140" width="120" height="100" as="geometry"/>
                </mxCell>
                <mxCell id="8" value="" style="whiteSpace=wrap;html=1;fontSize=10;fillColor=#647687;fontColor=#ffffff;strokeColor=#314354;dashed=1;" vertex="1" parent="7">
                    <mxGeometry width="120" height="100" as="geometry"/>
                </mxCell>
                <mxCell id="9" style="edgeStyle=none;html=1;exitX=0;exitY=0.25;exitDx=0;exitDy=0;entryX=1;entryY=0.25;entryDx=0;entryDy=0;fontSize=10;endArrow=none;endFill=0;" edge="1" parent="7" source="8" target="8">
                    <mxGeometry relative="1" as="geometry"/>
                </mxCell>
                <mxCell id="10" value="JPGImage" style="text;html=1;align=center;verticalAlign=middle;resizable=0;points=[];autosize=1;strokeColor=none;fillColor=none;fontSize=10;dashed=1;" vertex="1" parent="7">
                    <mxGeometry x="25" width="70" height="30" as="geometry"/>
                </mxCell>
                <mxCell id="11" value="&lt;i&gt;+parsefile()&lt;/i&gt;&lt;br&gt;#ImageOs * mOS" style="text;html=1;align=center;verticalAlign=middle;resizable=0;points=[];autosize=1;strokeColor=none;fillColor=none;fontSize=10;dashed=1;" vertex="1" parent="7">
                    <mxGeometry x="11" y="40" width="100" height="40" as="geometry"/>
                </mxCell>
                <mxCell id="12" value="" style="group" vertex="1" connectable="0" parent="22">
                    <mxGeometry x="240" y="140" width="120" height="100" as="geometry"/>
                </mxCell>
                <mxCell id="13" value="" style="whiteSpace=wrap;html=1;fontSize=10;fillColor=#647687;fontColor=#ffffff;strokeColor=#314354;dashed=1;" vertex="1" parent="12">
                    <mxGeometry width="120" height="100" as="geometry"/>
                </mxCell>
                <mxCell id="14" style="edgeStyle=none;html=1;exitX=0;exitY=0.25;exitDx=0;exitDy=0;entryX=1;entryY=0.25;entryDx=0;entryDy=0;fontSize=10;endArrow=none;endFill=0;" edge="1" parent="12" source="13" target="13">
                    <mxGeometry relative="1" as="geometry"/>
                </mxCell>
                <mxCell id="15" value="PNGImage" style="text;html=1;align=center;verticalAlign=middle;resizable=0;points=[];autosize=1;strokeColor=none;fillColor=none;fontSize=10;dashed=1;" vertex="1" parent="12">
                    <mxGeometry x="25" width="70" height="30" as="geometry"/>
                </mxCell>
                <mxCell id="16" value="&lt;i&gt;+parsefile()&lt;/i&gt;&lt;br&gt;#ImageOs * mOS" style="text;html=1;align=center;verticalAlign=middle;resizable=0;points=[];autosize=1;strokeColor=none;fillColor=none;fontSize=10;dashed=1;" vertex="1" parent="12">
                    <mxGeometry x="11" y="40" width="100" height="40" as="geometry"/>
                </mxCell>
                <mxCell id="19" value="&lt;font style=&quot;font-size: 8px;&quot;&gt;mOS-&amp;gt;draw()&lt;/font&gt;" style="text;html=1;align=center;verticalAlign=middle;resizable=0;points=[];autosize=1;strokeColor=none;fillColor=none;" vertex="1" parent="22">
                    <mxGeometry x="250" y="45" width="70" height="30" as="geometry"/>
                </mxCell>
                <mxCell id="20" style="edgeStyle=orthogonalEdgeStyle;html=1;entryX=0.5;entryY=1;entryDx=0;entryDy=0;fontSize=8;rounded=0;" edge="1" parent="22" source="8" target="3">
                    <mxGeometry relative="1" as="geometry"/>
                </mxCell>
                <mxCell id="21" style="edgeStyle=orthogonalEdgeStyle;rounded=0;html=1;fontSize=8;" edge="1" parent="22" source="15">
                    <mxGeometry relative="1" as="geometry">
                        <mxPoint x="180" y="100" as="targetPoint"/>
                        <Array as="points">
                            <mxPoint x="300" y="120"/>
                            <mxPoint x="180" y="120"/>
                        </Array>
                    </mxGeometry>
                </mxCell>
                <mxCell id="51" value="" style="rhombus;whiteSpace=wrap;html=1;fontSize=10;" vertex="1" parent="22">
                    <mxGeometry x="240" y="20" width="15" height="10" as="geometry"/>
                </mxCell>
                <mxCell id="23" value="" style="group" vertex="1" connectable="0" parent="1">
                    <mxGeometry x="520" y="130" width="120" height="70" as="geometry"/>
                </mxCell>
                <mxCell id="24" value="" style="whiteSpace=wrap;html=1;fontSize=10;fillColor=#647687;fontColor=#ffffff;strokeColor=#314354;dashed=1;" vertex="1" parent="23">
                    <mxGeometry width="120" height="70" as="geometry"/>
                </mxCell>
                <mxCell id="26" value="ImageOS" style="text;html=1;align=center;verticalAlign=middle;resizable=0;points=[];autosize=1;strokeColor=none;fillColor=none;fontSize=10;dashed=1;" vertex="1" parent="23">
                    <mxGeometry x="25" width="70" height="30" as="geometry"/>
                </mxCell>
                <mxCell id="27" value="&lt;i&gt;+draw()&lt;/i&gt;" style="text;html=1;align=center;verticalAlign=middle;resizable=0;points=[];autosize=1;strokeColor=none;fillColor=none;fontSize=10;dashed=1;" vertex="1" parent="23">
                    <mxGeometry x="31" y="31.5" width="60" height="30" as="geometry"/>
                </mxCell>
                <mxCell id="28" value="" style="edgeStyle=none;orthogonalLoop=1;jettySize=auto;html=1;rounded=0;fontSize=8;strokeColor=default;endArrow=none;endFill=0;" edge="1" parent="23">
                    <mxGeometry width="100" relative="1" as="geometry">
                        <mxPoint y="31.5" as="sourcePoint"/>
                        <mxPoint x="120" y="32" as="targetPoint"/>
                        <Array as="points"/>
                    </mxGeometry>
                </mxCell>
                <mxCell id="31" value="" style="group" vertex="1" connectable="0" parent="1">
                    <mxGeometry x="400" y="270" width="120" height="70" as="geometry"/>
                </mxCell>
                <mxCell id="32" value="" style="whiteSpace=wrap;html=1;fontSize=10;fillColor=#647687;fontColor=#ffffff;strokeColor=#314354;dashed=1;" vertex="1" parent="31">
                    <mxGeometry width="120" height="70" as="geometry"/>
                </mxCell>
                <mxCell id="33" value="ImageOS&lt;span style=&quot;background-color: initial;&quot;&gt;Win&lt;/span&gt;" style="text;html=1;align=center;verticalAlign=middle;resizable=0;points=[];autosize=1;strokeColor=none;fillColor=none;fontSize=10;dashed=1;" vertex="1" parent="31">
                    <mxGeometry x="20" width="80" height="30" as="geometry"/>
                </mxCell>
                <mxCell id="34" value="&lt;i&gt;+draw()&lt;/i&gt;" style="text;html=1;align=center;verticalAlign=middle;resizable=0;points=[];autosize=1;strokeColor=none;fillColor=none;fontSize=10;dashed=1;" vertex="1" parent="31">
                    <mxGeometry x="31" y="31.5" width="60" height="30" as="geometry"/>
                </mxCell>
                <mxCell id="35" value="" style="edgeStyle=none;orthogonalLoop=1;jettySize=auto;html=1;rounded=0;fontSize=8;strokeColor=default;endArrow=none;endFill=0;" edge="1" parent="31">
                    <mxGeometry width="100" relative="1" as="geometry">
                        <mxPoint y="31.5" as="sourcePoint"/>
                        <mxPoint x="120" y="32" as="targetPoint"/>
                        <Array as="points"/>
                    </mxGeometry>
                </mxCell>
                <mxCell id="36" value="" style="group" vertex="1" connectable="0" parent="1">
                    <mxGeometry x="520" y="270" width="120" height="70" as="geometry"/>
                </mxCell>
                <mxCell id="37" value="" style="whiteSpace=wrap;html=1;fontSize=10;fillColor=#647687;fontColor=#ffffff;strokeColor=#314354;dashed=1;" vertex="1" parent="36">
                    <mxGeometry width="120" height="70" as="geometry"/>
                </mxCell>
                <mxCell id="38" value="ImageOSLinux" style="text;html=1;align=center;verticalAlign=middle;resizable=0;points=[];autosize=1;strokeColor=none;fillColor=none;fontSize=10;dashed=1;" vertex="1" parent="36">
                    <mxGeometry x="15" width="90" height="30" as="geometry"/>
                </mxCell>
                <mxCell id="39" value="&lt;i&gt;+draw()&lt;/i&gt;" style="text;html=1;align=center;verticalAlign=middle;resizable=0;points=[];autosize=1;strokeColor=none;fillColor=none;fontSize=10;dashed=1;" vertex="1" parent="36">
                    <mxGeometry x="31" y="31.5" width="60" height="30" as="geometry"/>
                </mxCell>
                <mxCell id="40" value="" style="edgeStyle=none;orthogonalLoop=1;jettySize=auto;html=1;rounded=0;fontSize=8;strokeColor=default;endArrow=none;endFill=0;" edge="1" parent="36">
                    <mxGeometry width="100" relative="1" as="geometry">
                        <mxPoint y="31.5" as="sourcePoint"/>
                        <mxPoint x="120" y="32" as="targetPoint"/>
                        <Array as="points"/>
                    </mxGeometry>
                </mxCell>
                <mxCell id="41" value="" style="group" vertex="1" connectable="0" parent="1">
                    <mxGeometry x="640" y="270" width="120" height="70" as="geometry"/>
                </mxCell>
                <mxCell id="42" value="" style="whiteSpace=wrap;html=1;fontSize=10;fillColor=#647687;fontColor=#ffffff;strokeColor=#314354;dashed=1;" vertex="1" parent="41">
                    <mxGeometry width="120" height="70" as="geometry"/>
                </mxCell>
                <mxCell id="43" value="ImageOSMacos" style="text;html=1;align=center;verticalAlign=middle;resizable=0;points=[];autosize=1;strokeColor=none;fillColor=none;fontSize=10;dashed=1;" vertex="1" parent="41">
                    <mxGeometry x="10" width="100" height="30" as="geometry"/>
                </mxCell>
                <mxCell id="44" value="&lt;i&gt;+draw()&lt;/i&gt;" style="text;html=1;align=center;verticalAlign=middle;resizable=0;points=[];autosize=1;strokeColor=none;fillColor=none;fontSize=10;dashed=1;" vertex="1" parent="41">
                    <mxGeometry x="31" y="31.5" width="60" height="30" as="geometry"/>
                </mxCell>
                <mxCell id="45" value="" style="edgeStyle=none;orthogonalLoop=1;jettySize=auto;html=1;rounded=0;fontSize=8;strokeColor=default;endArrow=none;endFill=0;" edge="1" parent="41">
                    <mxGeometry width="100" relative="1" as="geometry">
                        <mxPoint y="31.5" as="sourcePoint"/>
                        <mxPoint x="120" y="32" as="targetPoint"/>
                        <Array as="points"/>
                    </mxGeometry>
                </mxCell>
                <mxCell id="46" style="edgeStyle=orthogonalEdgeStyle;rounded=0;html=1;strokeColor=default;fontSize=8;endArrow=classic;endFill=1;entryX=0.5;entryY=1;entryDx=0;entryDy=0;" edge="1" parent="1" source="33" target="24">
                    <mxGeometry relative="1" as="geometry">
                        <Array as="points">
                            <mxPoint x="460" y="240"/>
                            <mxPoint x="580" y="240"/>
                        </Array>
                    </mxGeometry>
                </mxCell>
                <mxCell id="47" style="edgeStyle=orthogonalEdgeStyle;rounded=0;html=1;exitX=0.5;exitY=0;exitDx=0;exitDy=0;entryX=0.5;entryY=1;entryDx=0;entryDy=0;strokeColor=default;fontSize=8;endArrow=classic;endFill=1;" edge="1" parent="1" source="37" target="24">
                    <mxGeometry relative="1" as="geometry"/>
                </mxCell>
                <mxCell id="48" style="edgeStyle=orthogonalEdgeStyle;rounded=0;html=1;exitX=0.5;exitY=0;exitDx=0;exitDy=0;strokeColor=default;fontSize=8;endArrow=classic;endFill=1;" edge="1" parent="1" source="42">
                    <mxGeometry relative="1" as="geometry">
                        <mxPoint x="579.9999999999998" y="200" as="targetPoint"/>
                        <Array as="points">
                            <mxPoint x="700" y="240"/>
                            <mxPoint x="580" y="240"/>
                        </Array>
                    </mxGeometry>
                </mxCell>
                <mxCell id="52" style="edgeStyle=orthogonalEdgeStyle;rounded=0;html=1;entryX=0.008;entryY=0.356;entryDx=0;entryDy=0;entryPerimeter=0;strokeColor=default;fontSize=8;endArrow=classic;endFill=1;" edge="1" parent="1" source="51" target="24">
                    <mxGeometry relative="1" as="geometry"/>
                </mxCell>
                <mxCell id="53" value="组合" style="text;html=1;align=center;verticalAlign=middle;resizable=0;points=[];autosize=1;strokeColor=none;fillColor=none;fontSize=8;" vertex="1" parent="1">
                    <mxGeometry x="370" y="130" width="40" height="20" as="geometry"/>
                </mxCell>
            </root>
        </mxGraphModel>
    </diagram>
</mxfile>